<svg width="1056" height="868" viewBox="0 0 1056 868" fill="none" xmlns="http://www.w3.org/2000/svg">
<path d="M535.69 792.985L568.268 783.369L558.762 816.101L568.268 848.74L535.69 839.217L503.02 848.74L512.618 816.101L503.02 783.369L535.69 792.985Z" fill="#030712"/>
<path d="M184.494 628.153L243.809 660.533L184.494 693.173L152.045 752.471L119.597 693.173L60.2812 660.533L119.597 628.153L152.045 568.595L184.494 628.153Z" fill="#030712"/>
<path d="M1012.43 709.847C1008.95 716.154 1002.45 720.775 992.942 723.659C983.428 726.547 971.046 727.648 956.08 727.002C926.155 725.71 886.259 717.45 839.141 703.016C744.931 674.158 622.175 620.723 493.229 549.538C364.283 478.353 253.64 402.94 178.995 338.582C141.662 306.394 113.398 277.027 96.3428 252.383C87.8132 240.058 82.1386 228.988 79.5036 219.394C76.8708 209.807 77.3069 201.837 80.7829 195.53C84.2588 189.223 90.7621 184.602 100.268 181.717C109.781 178.83 122.164 177.728 137.129 178.374C167.055 179.666 206.951 187.927 254.068 202.36C348.278 231.219 471.034 284.654 599.98 355.839C728.927 427.024 839.57 502.437 914.215 566.795C951.547 598.982 979.811 628.35 996.867 652.993C1005.4 665.318 1011.07 676.388 1013.71 685.982C1016.34 695.569 1015.9 703.54 1012.43 709.847Z" stroke="#030712" stroke-width="3.1307"/>
<path d="M974.305 779.015C970.829 785.322 964.326 789.943 954.82 792.827C945.307 795.715 932.924 796.816 917.959 796.17C888.034 794.878 848.138 786.618 801.02 772.184C706.81 743.326 584.054 689.891 455.108 618.706C326.162 547.521 215.519 472.108 140.873 407.75C103.541 375.562 75.2772 346.195 58.2217 321.551C49.6922 309.226 44.0175 298.156 41.3826 288.562C38.7497 278.975 39.1858 271.005 42.6618 264.697C46.1378 258.391 52.641 253.77 62.1467 250.885C71.6601 247.998 84.0426 246.896 99.0084 247.542C128.934 248.834 168.83 257.095 215.947 271.528C310.157 300.387 432.913 353.822 561.859 425.007C690.806 496.192 801.448 571.605 876.094 635.963C913.426 668.15 941.69 697.518 958.745 722.161C967.275 734.486 972.95 745.556 975.585 755.15C978.217 764.737 977.781 772.708 974.305 779.015Z" stroke="#030712" stroke-width="3.1307"/>
<path d="M936.18 848.183C932.704 854.49 926.201 859.11 916.695 861.995C907.182 864.883 894.799 865.984 879.834 865.338C849.909 864.046 810.013 855.786 762.895 841.352C668.685 812.493 545.929 759.059 416.983 687.874C288.037 616.689 177.394 541.276 102.748 476.918C65.4158 444.73 37.1522 415.363 20.0967 390.719C11.5672 378.394 5.89246 367.324 3.25755 357.73C0.624719 348.143 1.06082 340.173 4.53685 333.865C8.01275 327.559 14.516 322.938 24.0217 320.053C33.5351 317.166 45.9176 316.064 60.8834 316.71C90.8085 318.002 130.705 326.263 177.822 340.696C272.032 369.555 394.788 422.99 523.734 494.175C652.681 565.36 763.323 640.773 837.969 705.131C875.301 737.318 903.565 766.686 920.62 791.329C929.15 803.654 934.825 814.724 937.46 824.318C940.092 833.905 939.656 841.876 936.18 848.183Z" stroke="#030712" stroke-width="3.1307"/>
<path d="M227.155 173.01C227.155 189.023 213.536 202.005 196.736 202.005C179.936 202.005 166.316 189.023 166.316 173.01C166.316 156.997 179.936 144.016 196.736 144.016C213.536 144.016 227.155 156.997 227.155 173.01Z" fill="#E11D48"/>
<path d="M760.209 794.939C760.209 805.348 751.778 813.786 741.378 813.786C730.978 813.786 722.547 805.348 722.547 794.939C722.547 784.531 730.978 776.093 741.378 776.093C751.778 776.093 760.209 784.531 760.209 794.939Z" fill="#E11D48"/>
<path d="M146.04 97.6237C146.04 121.643 126.584 141.115 102.584 141.115C78.5846 141.115 59.1289 121.643 59.1289 97.6237C59.1289 73.6039 78.5846 54.1321 102.584 54.1321C126.584 54.1321 146.04 73.6039 146.04 97.6237Z" fill="#030712"/>
<path d="M525.624 700.051C513.744 704.118 500.167 696.057 495.445 682.079L421.953 466.349L464.897 451.631L538.463 667.658C543.185 681.488 537.43 695.983 525.624 700.051Z" fill="#030712"/>
<path d="M519.212 702.712C515.744 702.712 512.202 701.899 508.808 700.198C501.946 696.796 496.485 690.436 493.829 682.596L420.337 466.866C420.042 466.052 420.485 465.091 421.37 464.795L464.314 450.077C464.757 449.93 465.2 449.93 465.569 450.151C465.938 450.373 466.233 450.669 466.38 451.113L539.946 667.139C544.89 681.783 538.692 697.24 526.074 701.603C523.934 702.343 521.573 702.712 519.212 702.712ZM424.027 467.383L497.002 681.561C499.363 688.587 504.233 694.355 510.284 697.314C515.154 699.68 520.392 700.124 525.115 698.497C536.035 694.725 541.348 681.117 536.921 668.175L463.872 453.701L424.027 467.383Z" fill="#030712"/>
<path d="M457.302 265.413L318.361 364.737L264.275 421.018L243.025 458.661L242.951 458.957C238.745 465.465 241.18 480.478 249.075 495.787C256.823 510.875 267.743 521.376 275.417 521.968L275.196 522.116L316 526.553L392.37 514.35L554.48 456.221L755.992 490.832L757.394 490.906C706.777 481.44 638.45 413.622 588.791 317.701C539.206 221.853 523.416 127.115 545.183 80.3745H545.109L458.409 263.047L457.302 265.413Z" fill="#E11D48"/>
<path d="M790.886 486.728C840.687 460.805 831.057 343.286 769.376 224.241C707.695 105.197 617.32 29.7062 567.518 55.6288C517.716 81.5515 527.346 199.071 589.028 318.115C650.709 437.16 741.084 512.65 790.886 486.728Z" fill="#F9FAFB"/>
<path d="M768.979 493.493C747.286 493.493 721.165 481.364 693.052 457.772C654.757 425.675 617.199 376.198 587.315 318.365C542.084 230.8 523.416 141.017 539.796 89.6176C545.257 72.4597 554.406 60.4788 566.876 54.0446C591.669 41.3241 626.57 52.1217 665.234 84.5146C703.53 116.612 741.088 166.088 770.971 223.922C816.277 311.487 834.945 401.27 818.49 452.669C813.03 469.827 803.88 481.808 791.41 488.242C784.696 491.792 777.169 493.493 768.979 493.493ZM589.455 52.1217C581.855 52.1217 574.772 53.6748 568.426 57.0028C556.694 62.9933 548.134 74.3826 542.969 90.7269C526.81 141.387 545.404 230.209 590.267 317.033C651.363 435.142 740.94 510.725 790.008 485.506C801.741 479.516 810.3 468.126 815.465 451.782C831.624 401.122 813.03 312.3 768.167 225.475C714.967 122.676 640.294 52.1217 589.455 52.1217Z" fill="#030712"/>
<path d="M768.979 493.492C747.286 493.492 721.165 481.364 693.052 457.771C654.757 425.674 617.199 376.198 587.315 318.364C542.084 230.799 523.416 141.016 539.796 89.6167C545.257 72.4588 554.406 60.4779 566.876 54.0437C583.478 45.4647 605.172 47.6094 629.595 60.182C652.986 72.2369 678.295 93.6103 702.94 121.936C703.53 122.601 703.456 123.637 702.792 124.228C702.128 124.82 701.095 124.746 700.505 124.08C650.477 66.5423 599.859 40.8055 568.426 57.0019C556.694 62.9924 548.134 74.3817 542.969 90.726C526.81 141.386 545.404 230.208 590.267 317.033C643.394 419.758 718.14 490.386 768.905 490.386C776.505 490.386 783.589 488.833 789.935 485.505C801.667 479.515 810.226 468.125 815.391 451.781C831.551 401.121 812.956 312.299 768.094 225.475C754.738 199.59 739.686 175.258 723.526 153.145C723.01 152.406 723.157 151.37 723.895 150.853C724.633 150.335 725.666 150.483 726.183 151.222C742.49 173.483 757.542 197.963 771.045 223.995C816.277 311.486 834.945 401.269 818.49 452.668C813.03 469.826 803.88 481.807 791.41 488.242C784.696 491.791 777.169 493.492 768.979 493.492Z" fill="#030712"/>
<path d="M677.885 335.187C689.422 329.182 687.203 301.98 672.928 274.43C658.653 246.88 637.729 229.415 626.191 235.42C614.654 241.425 616.873 268.627 631.148 296.177C645.422 323.727 666.347 341.192 677.885 335.187Z" fill="#E11D48"/>
<path d="M672.833 338.038C660.142 338.038 642.433 321.619 629.667 296.844C619.042 276.284 614.688 255.132 618.599 242.93C620.001 238.64 622.289 235.608 625.461 233.981C638.005 227.547 659.478 245.074 674.383 273.843C685.008 294.403 689.362 315.555 685.451 327.758C684.049 332.047 681.762 335.079 678.589 336.706C676.818 337.594 674.899 338.038 672.833 338.038ZM631.217 235.83C629.667 235.83 628.192 236.126 626.937 236.791C624.502 238.049 622.731 240.415 621.624 243.891C618.009 255.28 622.215 275.544 632.471 295.365C646.048 321.619 666.488 339.295 677.039 333.822C679.474 332.565 681.245 330.198 682.352 326.722C685.968 315.259 681.688 295.069 671.505 275.249C659.552 252.248 642.433 235.83 631.217 235.83Z" fill="#E11D48"/>
<path d="M757.762 465.906C738.725 465.906 715.851 455.257 691.206 434.623C657.707 406.519 624.798 363.181 598.677 312.595C559.054 235.976 542.747 157.36 557.061 112.321C561.858 97.2339 569.9 86.7321 580.895 81.0375C606.13 68.0951 643.245 83.0343 682.795 122.009C683.459 122.675 683.459 123.636 682.795 124.302C682.131 124.968 681.171 124.968 680.507 124.302C641.99 86.3624 606.204 71.5711 582.37 83.9218C572.188 89.1727 564.735 99.0089 560.161 113.282C546.067 157.508 562.3 235.163 601.555 311.116C647.967 400.973 713.269 462.652 757.688 462.652C764.329 462.652 770.454 461.247 776.061 458.437C786.244 453.186 793.697 443.35 798.271 429.076C812.365 384.85 796.132 307.196 756.877 231.243C744.997 208.316 731.715 186.795 717.401 167.345C716.884 166.605 717.032 165.57 717.77 165.052C718.508 164.534 719.541 164.682 720.057 165.422C734.519 185.094 747.875 206.689 759.828 229.764C799.452 306.383 815.759 384.998 801.444 430.038C796.648 445.125 788.605 455.626 777.611 461.321C771.56 464.353 764.92 465.906 757.762 465.906Z" fill="#030712"/>
<path d="M316.075 528.106C316.001 528.106 315.927 528.106 315.927 528.106L275.123 523.669C274.902 523.669 274.68 523.595 274.459 523.447C266.047 522.116 255.422 511.466 247.674 496.527C239.41 480.774 236.975 465.391 241.476 458.144L241.55 457.922L262.801 420.204C262.874 420.056 262.948 419.982 263.022 419.908L317.108 363.627C317.182 363.553 317.255 363.479 317.329 363.405L455.901 264.304L543.56 79.6349C543.782 79.2651 544.077 78.9693 544.52 78.8213C544.962 78.6734 545.405 78.6734 545.774 78.8953C546.586 79.2651 546.955 80.2265 546.586 81.04C524.376 128.742 541.937 223.554 590.194 316.887C638.524 410.368 705.892 479.591 757.764 489.131C758.576 489.279 759.166 490.019 759.092 490.906C759.019 491.72 758.281 492.311 757.469 492.385L756.067 492.311C755.993 492.311 755.92 492.311 755.846 492.311L554.702 457.774L392.961 515.756C392.887 515.756 392.74 515.829 392.666 515.829L316.296 528.032C316.222 528.106 316.149 528.106 316.075 528.106ZM276.304 520.563L316.075 524.852L392.076 512.649L554.112 454.594C554.407 454.52 554.628 454.446 554.924 454.52L735.997 485.581C687.076 464.06 629.891 400.532 587.464 318.44C545.331 236.94 526.516 154.183 536.846 101.896L458.779 266.079C458.631 266.301 458.484 266.523 458.263 266.671L319.469 365.994L265.604 421.979L244.354 459.697C244.354 459.771 244.28 459.845 244.28 459.845C240.443 465.835 243.026 480.626 250.478 495.048C257.783 509.173 268.335 519.823 275.566 520.341C275.861 520.341 276.082 520.415 276.304 520.563Z" fill="#030712"/>
<path d="M457.528 264.823L545.114 80.3018H545.187C523.42 127.042 539.284 221.78 588.796 317.628C638.454 413.623 706.781 481.441 757.547 490.759L756.145 490.686L554.927 456.148L550.279 455.334C526.888 451.193 495.676 420.723 473.319 377.236C450.371 332.641 446.313 288.193 456.495 267.042L457.528 264.823Z" fill="#F9FAFB"/>
<path d="M757.544 492.386C757.544 492.386 757.47 492.386 757.544 492.386L756.069 492.312C755.995 492.312 755.921 492.312 755.847 492.312L554.63 457.774L549.981 456.961C525.263 452.597 493.903 420.87 471.841 378.049C446.827 329.386 445.572 286.047 455.017 266.375L456.124 264.156L543.709 79.7091C543.931 79.3393 544.226 79.0435 544.669 78.8956C545.111 78.7477 545.554 78.7477 545.923 78.9695C546.735 79.3393 547.103 80.3007 546.735 81.1143C524.525 128.816 542.086 223.628 590.343 316.961C638.673 410.442 706.041 479.665 757.913 489.206C758.725 489.353 759.315 490.093 759.241 490.981C759.02 491.72 758.356 492.386 757.544 492.386ZM536.7 101.896L459.002 265.561L457.895 267.78C448.524 287.305 451.254 330.939 474.718 376.496C496.338 418.503 526.812 449.565 550.571 453.706L555.22 454.52L735.925 485.582C687.004 464.06 629.819 400.532 587.391 318.44C545.259 236.94 526.443 154.183 536.7 101.896Z" fill="#030712"/>
<path d="M313.853 527.883C313.779 527.883 313.706 527.883 313.706 527.883L275.041 523.741C274.819 523.741 274.598 523.667 274.377 523.519C265.965 522.188 255.339 511.538 247.592 496.599C239.401 480.772 236.966 465.389 241.467 458.142L241.541 457.92L262.792 420.202C263.235 419.389 264.194 419.167 265.006 419.61C265.817 420.054 266.039 421.016 265.596 421.829L244.345 459.695C244.345 459.769 244.271 459.843 244.271 459.843C240.434 465.833 243.017 480.624 250.469 495.046C257.774 509.172 268.326 519.821 275.557 520.339C275.779 520.339 276.074 520.413 276.221 520.561L314.001 524.628C314.886 524.702 315.55 525.516 315.403 526.403C315.329 527.217 314.665 527.883 313.853 527.883Z" fill="#030712"/>
<path d="M316.44 526.253C303.896 525.366 286.334 507.542 273.569 482.915C260.066 456.808 256.893 429.814 265.157 420.2L243.095 458.657L242.947 458.953C238.741 465.461 241.176 480.474 249.072 495.783C256.819 510.87 267.74 521.372 275.414 521.964L275.192 522.112L316.44 526.253Z" fill="#F9FAFB"/>
<path d="M316.435 527.88C316.361 527.88 316.361 527.88 316.287 527.88C315.992 527.88 315.623 527.807 315.328 527.807L275.04 523.739C274.819 523.739 274.598 523.665 274.376 523.517C265.964 522.186 255.339 511.536 247.591 496.597C239.401 480.77 236.966 465.387 241.467 458.14L241.541 457.918L260.947 424.046C261.685 422.123 262.644 420.422 263.825 419.017C264.341 418.351 265.3 418.277 265.964 418.721C266.629 419.239 266.85 420.126 266.407 420.866L263.677 425.525C259.324 437.284 263.603 460.358 274.819 481.954C286.994 505.546 303.596 522.777 315.476 524.331L316.361 524.404C317.246 524.478 317.911 525.292 317.837 526.179C317.911 527.215 317.246 527.88 316.435 527.88ZM276.221 520.559L304.407 523.443C293.561 516.491 281.607 502.144 272.089 483.655C262.865 465.831 258.291 447.342 259.028 434.03L244.345 459.693C244.345 459.767 244.271 459.841 244.271 459.841C240.434 465.831 243.017 480.622 250.469 495.044C257.774 509.17 268.326 519.819 275.557 520.337C275.778 520.337 276.073 520.411 276.221 520.559Z" fill="#030712"/>
<path d="M389.646 514.643L392.892 513.977C375.331 517.675 347.587 491.051 328.033 453.259C308.037 414.654 304.274 376.123 318.441 364.733L316.596 366.582L265.314 419.979C256.903 429.445 260.002 456.587 273.578 482.842C286.639 508.135 305.159 526.18 317.777 526.106L389.646 514.643Z" fill="#030712"/>
<path d="M317.699 527.807C304.27 527.807 285.602 509.688 272.099 483.655C258.374 457.031 254.906 429.224 264.056 418.944L314.379 366.582C315.264 365.399 316.297 364.364 317.404 363.476C318.068 362.959 319.027 363.033 319.617 363.624C320.208 364.29 320.208 365.251 319.617 365.843L316.74 368.875C306.483 382.631 311.575 417.834 329.505 452.52C348.837 489.942 375.843 515.605 392.371 512.498L392.593 512.424C393.478 512.277 394.29 512.794 394.511 513.682C394.659 514.569 394.142 515.383 393.257 515.605C393.183 515.605 393.109 515.605 393.036 515.679L390.01 516.27H389.936L318.068 527.733C317.92 527.733 317.773 527.807 317.699 527.807ZM310.099 375.753L266.491 421.162C258.374 430.333 262.063 457.105 275.05 482.176C287.741 506.73 305.672 524.479 317.699 524.553L381.156 514.421C364.037 508.357 342.934 485.504 326.627 454.073C311.132 424.121 305.155 393.651 310.099 375.753Z" fill="#030712"/>
<path d="M626.21 235.383C614.625 241.3 616.323 268.738 631.08 296.101C655.799 341.88 675.5 336.482 677.787 335.668C677.861 335.668 677.861 335.742 677.787 335.742L635.36 369.984C622.89 352.456 611.01 332.932 600.089 311.854C589.685 291.664 580.905 271.548 573.969 252.023L626.21 235.383Z" fill="#030712"/>
<path d="M635.356 371.61C635.282 371.61 635.209 371.61 635.135 371.61C634.692 371.536 634.323 371.314 634.028 370.945C621.263 352.973 609.383 333.301 598.684 312.667C588.428 292.847 579.573 272.657 572.49 252.688C572.342 252.245 572.342 251.801 572.563 251.431C572.785 251.061 573.08 250.766 573.523 250.618L625.764 233.977C626.575 233.756 627.461 234.125 627.756 234.939C628.051 235.752 627.756 236.64 627.018 237.01C624.509 238.267 622.665 240.781 621.558 244.479C617.942 256.09 622.37 276.65 632.626 295.509C656.754 340.179 675.349 335.076 677.341 334.336C678.079 334.04 678.964 334.41 679.333 335.076C679.702 335.741 679.555 336.703 678.964 337.221L636.389 371.241C636.094 371.462 635.725 371.61 635.356 371.61ZM576.105 253.058C583.115 272.361 591.674 291.885 601.562 311.114C611.892 331.082 623.403 350.089 635.725 367.617L672.545 337.886C664.133 337.516 648.269 331.23 629.675 296.84C618.902 276.946 614.474 255.943 618.385 243.296C618.902 241.669 619.492 240.264 620.23 238.933L576.105 253.058Z" fill="#030712"/>
<path d="M844.511 129.883C878.243 112.129 891.29 70.4447 873.652 36.7797C856.014 3.11473 814.37 -9.78324 780.638 7.97131C746.905 25.7259 733.858 67.4097 751.497 101.075C769.135 134.74 810.779 147.638 844.511 129.883Z" fill="#030712"/>
<path d="M781.156 53.6744C784.402 49.2371 789.198 46.5007 794.659 45.909C798.791 45.4653 802.628 46.3528 806.243 48.5714C808.088 49.6808 809.711 51.086 811.261 52.787C812.368 50.7901 813.696 49.0152 815.246 47.5361C818.271 44.5778 821.886 42.8768 825.945 42.4331C831.405 41.8414 836.718 43.4685 840.85 47.0923C844.908 50.6422 847.491 55.8192 848.155 61.6617C848.819 67.6522 847.196 73.4208 843.064 79.781C839.374 85.4757 833.766 91.3922 827.273 98.3441C825.059 100.711 822.551 103.373 819.968 106.183C819.304 106.923 818.345 107.441 817.312 107.515C816.279 107.663 815.319 107.367 814.434 106.775C811.261 104.556 808.236 102.486 805.579 100.711C797.758 95.3858 790.969 90.8005 786.099 86.0673C780.639 80.8164 777.835 75.4916 777.171 69.5011C776.581 63.6585 777.983 58.0379 781.156 53.6744Z" fill="#F9FAFB"/>
<path d="M1035.87 133.65C1060.57 108.898 1060.57 68.7681 1035.87 44.0167C1011.18 19.2653 971.142 19.2653 946.447 44.0167C921.752 68.7681 921.752 108.898 946.447 133.65C971.142 158.401 1011.18 158.401 1035.87 133.65Z" fill="#E11D48"/>
<path d="M991.14 153.815C955.427 153.815 926.281 124.677 926.281 88.8077C926.281 53.0128 955.353 23.8 991.14 23.8C1026.93 23.8 1056 52.9389 1056 88.8077C1056 124.603 1026.93 153.815 991.14 153.815ZM991.14 27.0541C957.198 27.0541 929.528 54.7138 929.528 88.8077C929.528 122.828 957.124 150.561 991.14 150.561C1025.08 150.561 1052.75 122.902 1052.75 88.8077C1052.75 54.7878 1025.16 27.0541 991.14 27.0541Z" fill="#E11D48"/>
<path d="M1008.27 95.0917C1004.72 95.0917 1001.63 96.7927 999.559 99.4551L978.235 91.0981C978.235 90.8023 978.308 90.5804 978.308 90.2846C978.308 89.7669 978.235 89.2492 978.161 88.7315L1000 78.5995C1001.99 80.8921 1004.95 82.3712 1008.27 82.4452C1014.32 82.4452 1019.33 77.4901 1019.33 71.3517C1019.33 65.2134 1014.39 60.1843 1008.27 60.1843C1002.22 60.1843 997.198 65.1394 997.198 71.2778C997.198 71.7955 997.272 72.3132 997.346 72.8309L975.504 82.9629C973.512 80.6702 970.561 79.1911 967.24 79.1172C961.189 79.1172 956.172 84.0722 956.172 90.2106C956.172 96.349 961.116 101.378 967.24 101.378C970.782 101.378 973.881 99.677 975.947 97.0146L997.272 105.372C997.272 105.667 997.198 105.889 997.198 106.185C997.198 112.324 1002.14 117.353 1008.27 117.353C1014.32 117.353 1019.33 112.398 1019.33 106.259C1019.26 100.121 1014.32 95.1657 1008.27 95.0917Z" fill="#030712"/>
<path d="M1009.1 334.535C1038.06 314.389 1045.34 274.665 1025.35 245.809C1005.37 216.952 965.693 209.89 936.736 230.036C907.778 250.182 900.502 289.906 920.486 318.763C940.469 347.619 980.144 354.681 1009.1 334.535Z" fill="#030712"/>
<path d="M956.988 312.598L947.691 262.085C947.248 259.497 949.609 257.352 952.118 258.018L1007.09 273.623C1009.89 274.436 1010.56 278.06 1008.27 279.835L962.522 314.742C960.53 316.369 957.504 315.26 956.988 312.598Z" fill="#F9FAFB"/>
<path d="M972.308 541.44C1008.07 523.991 1023.03 480.969 1005.73 445.347C988.428 409.725 945.412 394.993 909.652 412.441C873.892 429.89 858.928 472.912 876.23 508.535C893.532 544.157 936.547 558.889 972.308 541.44Z" fill="#E11D48"/>
<path d="M940.622 550.438C932.948 550.438 925.126 549.255 917.526 546.667C898.932 540.454 883.879 527.438 875.172 509.836C866.466 492.309 865.137 472.414 871.409 453.777C884.396 415.394 926.159 394.464 964.602 407.259C983.197 413.471 998.249 426.487 1006.96 444.089C1015.66 461.617 1016.99 481.511 1010.72 500.148C1000.24 530.914 971.391 550.438 940.622 550.438ZM941.359 406.815C911.918 406.815 884.322 425.452 874.361 454.887C868.384 472.71 869.638 491.717 877.976 508.431C886.314 525.219 900.703 537.718 918.485 543.634C955.231 555.837 995.15 535.869 1007.55 499.187C1013.52 481.363 1012.27 462.356 1003.93 445.642C995.593 428.854 981.204 416.355 963.422 410.439C956.117 407.924 948.664 406.815 941.359 406.815Z" fill="#030712"/>
<path d="M977.656 465.316C976.918 483.287 946.592 525.294 939.36 535.13C938.622 536.166 937.073 536.092 936.409 534.982C931.834 527.587 916.707 502.737 908.812 482.621C905.639 474.634 903.647 467.386 903.868 462.283C904.68 441.871 921.873 425.971 942.238 426.784C962.604 427.746 978.468 444.904 977.656 465.316Z" fill="#030712"/>
<path d="M952.696 475.825C959.295 469.211 959.295 458.488 952.696 451.874C946.097 445.26 935.398 445.26 928.8 451.874C922.201 458.488 922.201 469.211 928.8 475.825C935.398 482.439 946.097 482.439 952.696 475.825Z" fill="#E11D48"/>
</svg>
