<svg width="127" height="48" viewBox="0 0 127 48" fill="none" xmlns="http://www.w3.org/2000/svg">
<path d="M44.4465 34.0576V21.3826H44.7007L55.0856 34.0576H58.3536V15.4443H54.7225V28.0873H54.4683L44.0834 15.4443H40.8154V34.0576H44.4465ZM68.6296 34.3449C73.4227 34.3449 76.3639 31.5992 76.3639 27.0017C76.3639 22.4362 73.4227 19.6586 68.6296 19.6586C63.8729 19.6586 60.8954 22.4362 60.8954 27.0017C60.9317 31.5992 63.8366 34.3449 68.6296 34.3449ZM68.6296 31.6631C66.0878 31.6631 64.6354 29.9709 64.6354 27.0017C64.6354 24.0645 66.0878 22.3404 68.6296 22.3404C71.1714 22.3404 72.6238 24.0645 72.6238 27.0017C72.6238 29.9709 71.1714 31.6631 68.6296 31.6631ZM79.6682 16.4978V20.0417H77.1264V22.5959H79.6682V30.2902C79.6682 33.0359 81.1206 34.1214 84.8243 34.1214C85.5142 34.1214 86.2041 34.0576 86.7488 33.9618V31.4715C86.3131 31.5034 86.0226 31.5354 85.5142 31.5354C83.9892 31.5354 83.2993 30.9287 83.2993 29.524V22.5959H86.7488V20.0417H83.2993V16.4978H79.6682ZM88.9275 34.0576H92.5586V19.9459H88.9275V34.0576ZM90.743 17.6153C91.9413 17.6153 92.9217 16.7532 92.9217 15.6997C92.9217 14.6142 91.9413 13.7521 90.743 13.7521C89.5447 13.7521 88.5643 14.6142 88.5643 15.6997C88.5643 16.7532 89.5447 17.6153 90.743 17.6153ZM102.508 34.3449C107.301 34.3449 110.242 31.5992 110.242 27.0017C110.242 22.4362 107.301 19.6586 102.508 19.6586C97.751 19.6586 94.7735 22.4362 94.7735 27.0017C94.7735 31.5992 97.6784 34.3449 102.508 34.3449ZM102.508 31.6631C99.966 31.6631 98.5136 29.9709 98.5136 27.0017C98.5136 24.0645 99.966 22.3404 102.508 22.3404C105.013 22.3404 106.502 24.0645 106.502 27.0017C106.466 29.9709 105.013 31.6631 102.508 31.6631ZM112.384 34.0576H116.015V25.8524C116.015 23.7771 117.395 22.4681 119.538 22.4681C121.753 22.4681 122.769 23.5537 122.769 25.6927V34.0576H126.4V24.9265C126.4 21.5423 124.44 19.6586 120.881 19.6586C118.485 19.6586 116.887 20.6164 116.124 22.2127H115.87V19.9459H112.348C112.384 19.9459 112.384 34.0576 112.384 34.0576Z" fill="#030712"/>
<path fill-rule="evenodd" clip-rule="evenodd" d="M5.99937 14.2529C7.05621 15.0104 7.43847 14.9506 9.41723 14.831L28.058 13.8343C28.4628 13.8343 28.1255 13.4755 27.9906 13.4357L24.8875 11.4623C24.3029 11.0637 23.4934 10.5853 21.9868 10.7049L3.95316 11.8809C3.30107 11.9407 3.16615 12.2397 3.43598 12.459L5.99937 14.2529ZM7.12367 18.0999V35.4813C7.12367 36.4181 7.64084 36.757 8.83259 36.6972L29.3172 35.6408C30.509 35.581 30.6439 34.9431 30.6439 34.1857V16.9239C30.6439 16.1665 30.3066 15.7479 29.5871 15.8077L8.1805 16.9239C7.3935 16.9837 7.12367 17.3425 7.12367 18.0999ZM27.3385 19.0368C27.4734 19.555 27.3385 20.0932 26.7538 20.153L25.7645 20.3324V33.1691C24.91 33.5678 24.123 33.8069 23.4484 33.8069C22.3916 33.8069 22.1217 33.508 21.3347 32.6309L14.8813 23.6412V32.3319L16.9275 32.7306C16.9275 32.7306 16.9275 33.787 15.286 33.787L10.7439 34.0262C10.609 33.787 10.7439 33.209 11.1936 33.0894L12.3854 32.7904V21.3091L10.7439 21.1895C10.609 20.6713 10.9463 19.9138 11.8682 19.854L16.7476 19.555L23.4709 28.6444V20.6115L21.762 20.4321C21.6271 19.7942 22.1667 19.3158 22.8188 19.256L27.3385 19.0368ZM2.4466 10.2863L21.2223 9.0704C23.5159 8.891 24.123 9.0106 25.5621 9.94744L31.5433 13.6749C32.5327 14.3127 32.87 14.4921 32.87 15.1898V35.6607C32.87 36.9364 32.3528 37.6938 30.509 37.8134L8.72017 38.9895C7.32604 39.0493 6.67395 38.8699 5.9544 38.0526L1.52468 32.9698C0.737679 32.0329 0.400391 31.3353 0.400391 30.518V12.3194C0.400391 11.263 0.940051 10.4059 2.4466 10.2863Z" fill="#030712"/>
</svg>
