<svg width="126" height="48" viewBox="0 0 126 48" fill="none" xmlns="http://www.w3.org/2000/svg">
<path fill-rule="evenodd" clip-rule="evenodd" d="M78.1675 40.8069C70.8455 45.4973 60.2326 47.9998 51.0951 47.9998C38.2828 47.9998 26.7485 43.8814 18.0223 37.0316C17.3368 36.493 17.951 35.7589 18.7737 36.1784C28.191 40.9403 39.835 43.8051 51.8629 43.8051C59.9748 43.8051 68.8984 42.3465 77.1035 39.3196C78.343 38.862 79.3796 40.0251 78.1675 40.8069Z" fill="#030712"/>
<path fill-rule="evenodd" clip-rule="evenodd" d="M81.2116 37.78C80.2792 36.7409 75.0249 37.2891 72.6665 37.5322C71.948 37.6084 71.8383 37.065 72.4855 36.6741C76.6703 34.1144 83.5371 34.8533 84.3379 35.7113C85.1386 36.574 84.1295 42.5563 80.1969 45.4115C79.5936 45.8501 79.0177 45.6165 79.2865 45.035C80.1695 43.1187 82.1495 38.8239 81.2116 37.78Z" fill="#030712"/>
<path fill-rule="evenodd" clip-rule="evenodd" d="M72.8314 18.6036V16.1154C72.8314 15.7388 73.1605 15.4862 73.5554 15.4862H86.3731C86.7844 15.4862 87.1135 15.7436 87.1135 16.1154V18.2461C87.108 18.6036 86.7625 19.0708 86.1482 19.8096L79.5062 28.0513C81.9743 27.9988 84.5796 28.3182 86.8173 29.4145C87.3219 29.6624 87.459 30.0247 87.4974 30.3822V33.0373C87.4974 33.3995 87.0367 33.8238 86.5541 33.6045C82.6106 31.8074 77.3727 31.612 73.0124 33.6236C72.5681 33.8333 72.1019 33.4138 72.1019 33.0516V30.53C72.1019 30.1248 72.1074 29.4336 72.5736 28.8187L80.2686 19.2281H73.5718C73.1604 19.2281 72.8314 18.9754 72.8314 18.6036Z" fill="#030712"/>
<path fill-rule="evenodd" clip-rule="evenodd" d="M26.0743 34.1289H22.1747C21.8017 34.105 21.5055 33.8619 21.4781 33.5521V16.1583C21.4781 15.8104 21.8127 15.5339 22.2295 15.5339H25.8659C26.2443 15.5482 26.546 15.8008 26.5734 16.1154V18.3892H26.6447C27.5936 16.1917 29.3761 15.1669 31.7784 15.1669C34.2191 15.1669 35.7438 16.1917 36.8408 18.3892C37.7841 16.1917 39.9286 15.1669 42.2267 15.1669C43.8612 15.1669 45.6492 15.7532 46.7406 17.0688C47.9747 18.5322 47.7224 20.6581 47.7224 22.5219L47.7169 33.4997C47.7169 33.8476 47.3823 34.1289 46.9655 34.1289H43.0714C42.682 34.105 42.3693 33.8333 42.3693 33.4997V24.2808C42.3693 23.5468 42.4461 21.7163 42.2596 21.0204C41.969 19.8526 41.0969 19.5236 39.967 19.5236C39.0237 19.5236 38.0364 20.0718 37.636 20.9489C37.2357 21.826 37.274 23.2941 37.274 24.2808V33.4997C37.274 33.8476 36.9395 34.1289 36.5226 34.1289H32.6285C32.2336 34.105 31.9265 33.8333 31.9265 33.4997L31.921 24.2808C31.921 22.3408 32.2885 19.4855 29.5187 19.4855C26.716 19.4855 26.8257 22.2693 26.8257 24.2808V33.4997C26.8257 33.8476 26.4911 34.1289 26.0743 34.1289Z" fill="#030712"/>
<path fill-rule="evenodd" clip-rule="evenodd" d="M98.1486 15.1669C103.935 15.1669 107.067 19.4855 107.067 24.9768C107.067 30.2821 103.606 34.4911 98.1486 34.4911C92.4664 34.4911 89.3731 30.1725 89.3731 24.7909C89.3731 19.3759 92.5048 15.1669 98.1486 15.1669ZM98.1815 18.7181C95.3075 18.7181 95.1265 22.1215 95.1265 24.2427C95.1265 26.3686 95.0881 30.9066 98.1486 30.9066C101.171 30.9066 101.313 27.2457 101.313 25.0149C101.313 23.5468 101.242 21.7926 100.732 20.4007C100.293 19.19 99.421 18.7181 98.1815 18.7181Z" fill="#030712"/>
<path fill-rule="evenodd" clip-rule="evenodd" d="M114.57 34.1289H110.687C110.297 34.105 109.985 33.8333 109.985 33.4997L109.979 16.1011C110.012 15.7818 110.336 15.5339 110.731 15.5339H114.345C114.685 15.5482 114.965 15.7484 115.042 16.0201V18.6799H115.113C116.204 16.3013 117.735 15.1669 120.428 15.1669C122.177 15.1669 123.883 15.715 124.98 17.2166C126 18.6084 126 20.9489 126 22.6315V33.5807C125.956 33.8858 125.633 34.1289 125.249 34.1289H121.338C120.982 34.105 120.685 33.8762 120.647 33.5807V24.1331C120.647 22.2311 120.899 19.4474 118.206 19.4474C117.257 19.4474 116.385 20.0003 115.952 20.8393C115.404 21.9022 115.332 22.9605 115.332 24.1331V33.4997C115.327 33.8476 114.987 34.1289 114.57 34.1289Z" fill="#030712"/>
<path fill-rule="evenodd" clip-rule="evenodd" d="M62.6134 25.8204C62.6134 27.1408 62.6518 28.2419 61.8839 29.4146C61.2642 30.3679 60.2769 30.9542 59.1855 30.9542C57.6882 30.9542 56.8106 29.9627 56.8106 28.4993C56.8106 25.6107 59.7888 25.0864 62.6134 25.0864V25.8204ZM66.5459 34.0812C66.2882 34.2814 65.9152 34.2957 65.6245 34.1622C64.3301 33.2279 64.0943 32.7942 63.3867 31.9028C61.2477 33.7999 59.7285 34.3672 56.9587 34.3672C53.6733 34.3672 51.123 32.6083 51.123 29.0857C51.123 26.3353 52.8342 24.4619 55.2804 23.5467C57.3975 22.7364 60.3537 22.5934 62.6134 22.3693V21.9308C62.6134 21.1252 62.6847 20.1719 62.1362 19.476C61.6646 18.8515 60.7541 18.5941 59.9478 18.5941C58.4615 18.5941 57.1397 19.2567 56.8161 20.6295C56.7503 20.9346 56.4925 21.2349 56.136 21.2492L52.357 20.8964C52.0389 20.8345 51.6824 20.6104 51.7756 20.1862C52.6422 16.2012 56.7887 15 60.4963 15C62.394 15 64.8731 15.4385 66.3704 16.6874C68.2681 18.2271 68.0871 20.2815 68.0871 22.5171V27.7986C68.0871 29.386 68.844 30.0819 69.557 30.9399C69.8038 31.245 69.8587 31.612 69.5406 31.8408C68.7453 32.4176 67.3302 33.4901 66.5514 34.0907L66.5459 34.0812Z" fill="#030712"/>
<path fill-rule="evenodd" clip-rule="evenodd" d="M11.4904 25.8204C11.4904 27.1408 11.5288 28.2419 10.761 29.4145C10.1412 30.3679 9.15944 30.9542 8.0625 30.9542C6.56518 30.9542 5.69311 29.9627 5.69311 28.4993C5.69311 25.6107 8.6713 25.0864 11.4904 25.0864V25.8204ZM15.423 34.0812C15.1652 34.2814 14.7922 34.2957 14.5015 34.1622C13.2071 33.2279 12.9768 32.7941 12.2638 31.9028C10.1247 33.7999 8.61097 34.3672 5.83571 34.3672C2.55586 34.3672 0 32.6082 0 29.0856C0 26.3352 1.71671 24.4619 4.1574 23.5467C6.27449 22.7364 9.23074 22.5934 11.4904 22.3693V21.9308C11.4904 21.1252 11.5617 20.1719 11.0187 19.4759C10.5416 18.8515 9.63112 18.5941 8.83035 18.5941C7.34401 18.5941 6.01671 19.2567 5.69311 20.6295C5.62729 20.9346 5.36951 21.2349 5.01849 21.2492L1.23406 20.8964C0.915943 20.8345 0.564922 20.6104 0.652678 20.1862C1.52474 16.2012 5.66569 15 9.37334 15C11.271 15 13.7501 15.4385 15.2474 16.6874C17.1451 18.2271 16.9642 20.2815 16.9642 22.5171V27.7986C16.9642 29.3859 17.721 30.0819 18.4341 30.9399C18.6864 31.245 18.7412 31.612 18.4231 31.8408C17.6278 32.4176 16.2128 33.4901 15.4339 34.0907L15.423 34.0812Z" fill="#030712"/>
</svg>
