<svg width="127" height="48" viewBox="0 0 127 48" fill="none" xmlns="http://www.w3.org/2000/svg">
<path fill-rule="evenodd" clip-rule="evenodd" d="M126.404 31.8164C121.139 39.6474 112.8 37.3751 110.296 35.596C109.23 36.2304 107.361 37.6209 104.869 37.4603C99.5615 37.1185 97.6609 30.4652 97.6609 30.4652C97.699 30.4918 96.0799 30.9553 95.2049 30.947C95.1936 32.8982 93.271 37.5591 88.0821 37.4994C82.2594 37.4328 81.0756 29.8231 81.0756 29.8231C81.0756 29.8231 80.4962 30.5289 78.293 31.2319C78.404 29.7329 78.3229 37.2712 71.3441 37.3821C65.827 37.4698 64.3377 29.7057 64.3377 29.7057C64.3377 29.7057 63.3806 30.5779 61.5258 30.8804C61.6436 29.357 61.452 37.4077 54.4724 37.3821C49.7557 37.3649 48.1439 32.5994 48.2692 31.938C48.4292 31.0951 46.6752 37.5006 42.0936 37.4008C40.2029 37.3521 38.7934 36.1513 37.9089 34.5503C36.7248 35.7388 35.0057 37.4008 33.0773 37.4008C29.6156 37.4008 28.0895 34.861 28.348 27.6067C28.37 26.7463 28.2992 26.4078 27.3242 26.2791C26.739 26.1935 26.1396 26.0313 25.5055 25.9458C25.3022 26.5408 23.5784 37.2073 17.6506 37.4097C15.6619 37.4776 14.5745 35.9664 13.6815 34.8448C12.3126 36.4334 10.5055 37.4603 7.93127 37.4603C3.57064 37.4603 0.599609 34.3679 0.599609 30.5533C0.599609 26.7386 3.57064 23.6465 7.93127 23.6465C8.70227 23.6465 8.91871 23.7434 9.62307 23.9237C8.17453 12.3544 11.5954 10.5462 14.5879 10.5462C17.4609 10.5462 22.3691 16.3957 15.4628 31.2331C16.9962 35.6587 20.3017 35.4084 21.8901 26.298C22.2134 24.4462 21.349 21.9472 22.6935 21.5984C25.1514 20.961 25.4122 22.8734 26.5646 23.1921C27.7831 23.5288 28.4944 23.496 29.6642 23.7103C31.6631 24.0527 32.4431 24.9947 32.1996 27.0927C31.9071 29.7473 31.3955 33.6111 32.9554 34.082C34.0803 34.4241 36.1341 32.3776 36.4945 31.2579C36.8548 30.1382 36.9301 29.755 36.9621 28.9337C37.0108 27.1785 37.072 25.8918 37.4132 24.5644C37.5592 24.0507 37.7257 23.7105 38.3882 23.6873C38.9333 23.6751 39.9302 23.5311 40.369 23.8307C40.9539 24.2163 40.8808 24.6074 40.8137 25.637C40.1334 40.3164 45.3691 32.9883 46.9301 27.1208C46.3743 20.4859 46.7559 10.6677 51.4955 10.5031C53.9604 10.4174 55.0502 12.1497 55.17 13.4427C55.5091 17.0945 53.61 23.1437 51.1124 27.2118C49.6849 35.5125 57.3535 37.1537 58.5798 30.5282C56.5735 29.6913 54.4051 26.3041 56.1696 24.6535C57.1597 23.7271 61.281 25.0579 61.3485 27.9605C63.3702 27.4862 63.6401 26.4849 63.6681 26.6509C63.1124 20.016 63.6278 10.6678 68.3677 10.5031C70.8323 10.4175 71.9219 12.1498 72.0418 13.4427C72.3808 17.0946 70.4817 23.1438 67.9844 27.2119C66.5568 35.5125 74.2256 37.1539 75.4516 30.5283C73.9661 30.2768 70.8304 26.6741 72.6396 24.6535C73.6065 23.5738 77.7128 25.8193 78.1725 28.0566C80.1146 27.5745 80.3783 26.605 80.4062 26.7682C79.8503 20.1336 80.3657 10.7854 85.1057 10.6207C87.5703 10.5351 88.6599 12.2674 88.7797 13.5603C89.1188 17.2122 87.2196 23.2615 84.722 27.3296C83.2947 35.6303 90.9633 37.2712 92.1897 30.6457C90.1483 30.3475 87.2472 26.5435 89.5821 24.5975C90.515 23.8199 94.0797 25.8383 94.9141 28.141C96.0735 28.1019 96.7951 27.7511 96.9498 27.7157C95.099 19.9268 96.4768 10.5813 101.576 10.5033C104.332 10.4611 107.026 11.8102 105.843 19.2203C104.714 26.2905 100.657 29.2575 100.666 29.3029C100.902 30.1499 102.984 37.2384 108.228 33.4982C107.956 32.9591 107.685 32.4083 107.533 31.7411C106.664 27.8543 108.371 23.4642 113.01 22.7547C115.668 22.3482 118.173 23.4835 118.568 26.0429C119.22 30.231 114.909 33.2641 113.269 33.922C112.535 33.5561 119.925 37.7138 124.311 29.3817C124.565 28.906 124.872 28.9463 125.269 29.1915C125.55 29.3647 127.148 30.6925 126.404 31.8164ZM11.1032 29.5242C10.8801 28.939 10.4221 27.6494 10.2602 27.0906C9.3683 26.4103 8.7317 26.2998 7.58689 26.2998C5.04277 26.2998 3.54534 28.3632 3.54534 30.5882C3.54534 32.8131 5.17668 34.8768 7.72081 34.8768C9.9256 34.8768 11.6036 33.5618 12.1156 31.7002C11.7573 30.9745 11.4018 30.3075 11.1032 29.5242ZM14.5256 13.6087C12.7379 13.6087 12.1315 17.3496 12.2492 20.5409C12.3533 23.3624 13.2521 25.8465 13.7183 26.9595C13.8367 27.0989 13.8147 27.0082 13.9204 27.1561C17.0243 21.1902 15.7369 13.6087 14.5256 13.6087ZM51.7508 13.7262C49.4404 13.4938 49.4553 21.9369 49.7421 23.8307C50.9421 22.1468 53.0266 14.1796 51.7508 13.7262ZM68.6225 13.7262C66.3121 13.4938 66.327 21.9369 66.614 23.8307C67.8138 22.1468 69.8985 14.1796 68.6225 13.7262ZM85.3606 13.8437C83.05 13.6112 83.065 22.0544 83.3519 23.9484C84.5518 22.2643 86.6364 14.2971 85.3606 13.8437ZM101.831 13.232C98.2309 13.8661 99.0691 24.3948 99.6159 26.2415C103.856 21.1325 103.943 13.0401 101.831 13.232ZM115.322 26.3894C115.139 25.718 114.224 25.3592 113.592 25.4477C111.785 25.6642 110.031 27.6389 110.71 30.6454C110.861 31.315 111.239 31.9313 111.233 31.9108C115.278 29.5302 115.622 27.6542 115.322 26.3894ZM39.0968 21.3634C38.5802 21.3635 38.0752 21.2292 37.6456 20.9775C37.216 20.7257 36.8811 20.3679 36.6834 19.9493C36.4856 19.5306 36.4338 19.0699 36.5346 18.6255C36.6353 18.181 36.8841 17.7727 37.2494 17.4522C37.6146 17.1318 38.08 16.9135 38.5866 16.8251C39.0933 16.7367 39.6185 16.782 40.0958 16.9555C40.5731 17.1289 40.981 17.4226 41.2679 17.7994C41.5549 18.1762 41.7081 18.6192 41.7081 19.0724C41.7081 19.3732 41.6406 19.6711 41.5093 19.9491C41.3782 20.227 41.1859 20.4796 40.9433 20.6923C40.7008 20.905 40.413 21.0738 40.0961 21.189C39.7793 21.3041 39.4398 21.3634 39.0968 21.3634Z" fill="#030712"/>
</svg>
