<svg width="126" height="48" viewBox="0 0 126 48" fill="none" xmlns="http://www.w3.org/2000/svg">
<path d="M17.3254 37.0663C15.43 37.3595 13.5012 37.4474 11.506 37.6816L5.42034 21.9786V38.3555C3.52492 38.5313 1.79575 38.7656 0 39V9H5.05477L11.9715 26.0217V9H17.3254V37.0663ZM27.8005 19.9863C29.8624 19.9863 33.0215 19.8984 34.9169 19.8984V24.5858C32.5557 24.5858 29.7958 24.5858 27.8005 24.6737V31.6465C30.9265 31.4708 34.0524 31.2362 37.2113 31.1483V35.6597L22.4797 36.6854V9H37.2113V13.6875H27.8005V19.9863V19.9863ZM56.9975 13.6876H51.4774V35.2501C49.6817 35.2501 47.8859 35.2501 46.157 35.3085V13.6876H40.6368V9H56.9978L56.9975 13.6876V13.6876ZM65.6435 19.6642H72.9263V24.3516H65.6435V34.9864H60.4223V9H75.2873V13.6875H65.6435V19.6642V19.6642ZM83.9333 30.8848C86.9596 30.9432 90.0188 31.1486 92.9785 31.2948V35.9238C88.2233 35.66 83.4679 35.3966 78.6128 35.3085V9H83.9333V30.8848ZM97.4678 36.2461C99.1637 36.3341 100.959 36.422 102.689 36.5975V9H97.4678V36.2461V36.2461ZM126 9L119.249 23.2676L126 39C124.005 38.7656 122.009 38.4433 120.014 38.1503L116.19 29.4786L112.3 37.4474C110.37 37.1542 108.508 37.0663 106.58 36.8319L113.43 23.0917L107.245 9H112.964L116.456 16.8809L120.181 9H126V9Z" fill="#030712"/>
</svg>
