<svg width="127" height="48" viewBox="0 0 127 48" fill="none" xmlns="http://www.w3.org/2000/svg">
<path d="M13.8442 13.1062V22.1939H4.59188V13.1062H0.199219V34.7995H4.59188V26.0069H13.8442V34.7995H18.2369V13.1062H13.8442Z" fill="#030712"/>
<path d="M32.2951 27.7867C32.2951 28.6561 31.9122 29.4899 31.2307 30.1046C30.5492 30.7194 29.6249 31.0647 28.6611 31.0647C27.6973 31.0647 26.773 30.7194 26.0915 30.1046C25.4099 29.4899 25.0271 28.6561 25.0271 27.7867V18.4951H20.8604V27.7867C20.8604 29.6511 21.6815 31.4392 23.143 32.7575C24.6045 34.0759 26.5867 34.8165 28.6536 34.8165C30.7204 34.8165 32.7026 34.0759 34.1641 32.7575C35.6256 31.4392 36.4467 29.6511 36.4467 27.7867V18.4951H32.2951V27.7867Z" fill="#030712"/>
<path d="M63.1674 19.4527C63.1674 17.5482 64.5641 16.9444 66.0944 16.9444C67.3276 16.9444 68.9568 17.7908 70.0221 18.8178L72.7511 15.9174C71.3888 14.2555 68.6254 13.1062 66.3634 13.1062C61.8438 13.1062 58.5745 15.4942 58.5745 19.4527C58.5745 26.797 68.5264 24.4673 68.5264 28.5773C68.5264 29.845 67.1619 30.9652 65.5994 30.9652C63.1351 30.9652 62.3366 29.878 61.2045 28.7287L58.1764 31.569C60.1134 33.7143 62.5023 34.8034 65.3648 34.8034C69.6584 34.8034 73.1127 32.3863 73.1127 28.6084C73.1127 20.4545 63.1609 22.988 63.1609 19.4527" fill="#030712"/>
<path d="M124.734 31.3339C122.271 31.3339 121.572 30.3729 121.572 28.9013V22.3878H125.399V19.0874H121.572V14.7329L117.347 16.4432V29.7108C117.347 33.1044 119.943 34.8148 123.502 34.8148C124.061 34.824 124.619 34.7837 125.168 34.6944L126.199 31.2717C125.734 31.3008 125.201 31.33 124.734 31.33" fill="#030712"/>
<path d="M48.1557 18.6046C46.0918 18.6046 44.6519 19.1443 43.2595 20.3771V13.2366H39.0863V26.4712C39.0863 31.4257 43.0572 34.8193 47.5187 34.8193C52.4688 34.8193 56.8227 31.3655 56.8227 26.7139C56.8227 22.1205 52.8153 18.6066 48.1557 18.6066V18.6046ZM48.1299 31.0316C47.1934 31.0316 46.278 30.7811 45.4994 30.3118C44.7207 29.8425 44.1138 29.1754 43.7555 28.395C43.3971 27.6145 43.3033 26.7558 43.486 25.9272C43.6687 25.0987 44.1197 24.3377 44.7819 23.7404C45.444 23.143 46.2877 22.7363 47.2062 22.5715C48.1247 22.4067 49.0767 22.4912 49.9419 22.8145C50.8071 23.1378 51.5465 23.6852 52.0668 24.3876C52.5871 25.09 52.8648 25.9158 52.8648 26.7605C52.8648 27.8933 52.3659 28.9796 51.478 29.7806C50.59 30.5816 49.3857 31.0316 48.1299 31.0316Z" fill="#030712"/>
<path d="M93.4681 26.515C93.4681 21.8557 89.1228 18.4096 84.1641 18.4096C79.7026 18.4096 75.7318 21.8032 75.7318 26.7577V40.0001H79.9049V32.8499C81.2952 34.0807 82.7372 34.6224 84.799 34.6224C89.4586 34.6224 93.466 31.1103 93.466 26.515H93.4681ZM89.5167 26.4684C89.5167 27.3132 89.239 28.139 88.7187 28.8413C88.1984 29.5437 87.459 30.0912 86.5938 30.4144C85.7286 30.7377 84.7766 30.8223 83.8581 30.6575C82.9396 30.4927 82.096 30.0859 81.4338 29.4886C80.7716 28.8912 80.3206 28.1302 80.138 27.3017C79.9553 26.4732 80.049 25.6144 80.4074 24.834C80.7658 24.0535 81.3726 23.3865 82.1513 22.9171C82.9299 22.4478 83.8454 22.1973 84.7818 22.1973C86.0376 22.1973 87.2419 22.6473 88.1299 23.4483C89.0178 24.2493 89.5167 25.3357 89.5167 26.4684Z" fill="#030712"/>
<path d="M106.908 18.3496V14.6066C107.456 14.3756 107.92 14.0088 108.247 13.5489C108.573 13.089 108.747 12.555 108.75 12.009V11.9216C108.748 11.1587 108.411 10.4276 107.813 9.88807C107.215 9.34858 106.404 9.04459 105.558 9.04254H105.461C104.616 9.04459 103.805 9.34858 103.207 9.88807C102.609 10.4276 102.272 11.1587 102.27 11.9216V12.009C102.272 12.555 102.447 13.089 102.773 13.5489C103.099 14.0088 103.564 14.3756 104.112 14.6066V18.3496C102.535 18.5671 101.05 19.1565 99.8075 20.0581L88.4137 12.0614C88.4948 11.7976 88.5382 11.5256 88.5429 11.2519C88.5437 10.6095 88.3334 9.98128 87.9384 9.44673C87.5435 8.91217 86.9817 8.49527 86.3241 8.24873C85.6665 8.00219 84.9426 7.93708 84.244 8.06166C83.5454 8.18623 82.9034 8.49487 82.3992 8.94857C81.8951 9.40226 81.5514 9.98063 81.4116 10.6105C81.2718 11.2404 81.3423 11.8936 81.614 12.4873C81.8858 13.0811 82.3466 13.5889 82.9382 13.9464C83.5299 14.3039 84.2258 14.4952 84.9379 14.496C85.5634 14.4939 86.1773 14.3432 86.7178 14.0591L97.92 21.9257C96.911 23.2989 96.3846 24.9146 96.4096 26.5619C96.4345 28.2091 97.0097 29.8113 98.0599 31.1591L94.6508 34.2343C94.3772 34.1557 94.0922 34.1138 93.805 34.11C93.2197 34.11 92.6476 34.2666 92.1609 34.5599C91.6743 34.8532 91.295 35.2701 91.071 35.7579C90.847 36.2457 90.7884 36.7824 90.9026 37.3002C91.0168 37.818 91.2986 38.2937 91.7125 38.667C92.1263 39.0403 92.6536 39.2946 93.2277 39.3976C93.8017 39.5006 94.3967 39.4477 94.9375 39.2457C95.4782 39.0436 95.9404 38.7015 96.2656 38.2625C96.5907 37.8235 96.7643 37.3074 96.7643 36.7794C96.7603 36.5204 96.7139 36.2633 96.6266 36.0165L99.9991 32.9743C101.1 33.7328 102.378 34.2544 103.737 34.4993C105.095 34.7441 106.498 34.7058 107.837 34.3871C109.177 34.0685 110.418 33.478 111.466 32.6607C112.514 31.8434 113.341 30.8209 113.884 29.6713C114.427 28.5217 114.672 27.2754 114.599 26.0275C114.527 24.7796 114.14 23.5631 113.467 22.4709C112.793 21.3786 111.853 20.4395 110.716 19.7253C109.579 19.0111 108.277 18.5405 106.908 18.3496ZM105.511 30.6621C104.588 30.6621 103.686 30.4152 102.919 29.9527C102.151 29.4902 101.553 28.8329 101.2 28.0638C100.847 27.2947 100.755 26.4484 100.935 25.632C101.115 24.8155 101.559 24.0655 102.212 23.4769C102.864 22.8883 103.695 22.4874 104.601 22.325C105.506 22.1626 106.444 22.2459 107.296 22.5645C108.149 22.8831 108.878 23.4225 109.391 24.1147C109.903 24.8069 110.177 25.6206 110.177 26.4531C110.177 27.5694 109.685 28.6399 108.81 29.4293C107.935 30.2186 106.748 30.6621 105.511 30.6621Z" fill="#030712"/>
</svg>
