<svg width="127" height="48" viewBox="0 0 127 48" fill="none" xmlns="http://www.w3.org/2000/svg">
<path fill-rule="evenodd" clip-rule="evenodd" d="M103.388 18.7967C103.87 19.5597 104.027 20.4279 104.079 21.4038L104.148 22.7046V31.8008L104.218 33.103C104.357 35.2296 106.065 36.8021 108.399 36.9358L109.81 37V22.7046L109.88 21.4038C109.938 20.4388 110.094 19.5543 110.583 18.7858C111.081 17.9976 111.797 17.3436 112.657 16.8896C113.518 16.4355 114.494 16.1974 115.486 16.199C116.479 16.2007 117.453 16.4421 118.312 16.899C119.171 17.3559 119.884 18.0123 120.379 18.8022C120.861 19.5652 121.011 20.4497 121.069 21.4038L121.139 22.7005V31.8008L121.209 33.103C121.354 35.2405 123.049 36.813 125.39 36.9358L126.801 37V21.4038C126.801 18.646 125.608 16.0011 123.485 14.0506C121.361 12.1001 118.481 11.0038 115.478 11.0027C113.87 11.0012 112.281 11.3146 110.816 11.9222C109.351 12.5297 108.044 13.4173 106.983 14.5257C105.92 13.4178 104.613 12.5304 103.149 11.9226C101.684 11.3149 100.095 11.0009 98.4871 11.0014C96.1355 11.0014 93.9533 11.6566 92.1457 12.7881C91.0427 11.6579 88.575 11.0014 87.1584 11.0014V37L88.575 36.9358C90.9446 36.7925 92.657 35.2624 92.7492 33.103L92.825 31.8008V22.7046L92.8949 21.4038C92.9543 20.4224 93.103 19.5597 93.5861 18.7913C94.0849 18.0035 94.7999 17.3497 95.6599 16.8951C96.52 16.4405 97.4948 16.201 98.4871 16.2005C99.4802 16.2007 100.456 16.4407 101.316 16.8964C102.176 17.3521 102.891 18.0074 103.388 18.7967V18.7967ZM6.46292 36.9372L7.87957 37H29.1144L29.0446 35.7033C28.8528 33.5657 27.2043 32.0042 24.8689 31.865L23.4523 31.8008H10.7129L27.6978 16.1992L27.6279 14.9038C27.5179 12.7444 25.7995 11.1843 23.4523 11.0655L22.0357 11.0068L0.800781 11.0014L0.870647 12.3022C1.05646 14.4193 2.72879 16.0135 5.04478 16.1364L6.46292 16.2005H19.2024L2.21743 31.8022L2.2873 33.103C2.42703 35.246 4.11125 36.798 6.46292 36.9358V36.9372ZM81.6003 14.8069C82.9151 16.014 83.9581 17.4471 84.6697 19.0243C85.3813 20.6016 85.7476 22.2921 85.7476 23.9993C85.7476 25.7066 85.3813 27.3971 84.6697 28.9743C83.9581 30.5516 82.9151 31.9847 81.6003 33.1917C78.9439 35.629 75.3424 36.998 71.5872 36.998C67.832 36.998 64.2304 35.629 61.574 33.1917C56.0456 28.1154 56.0456 19.8832 61.574 14.8069C62.8876 13.6002 64.4472 12.643 66.1638 11.9898C67.8803 11.3366 69.7201 11.0003 71.5782 11C73.4393 10.9988 75.2825 11.3346 77.0021 11.988C78.7218 12.6415 80.2843 13.5998 81.6003 14.8083V14.8069ZM77.5942 18.4882C79.1865 19.9515 80.081 21.9355 80.081 24.0041C80.081 26.0727 79.1865 28.0567 77.5942 29.52C76.0006 30.9821 73.84 31.8035 71.5872 31.8035C69.3343 31.8035 67.1737 30.9821 65.5801 29.52C63.9878 28.0567 63.0933 26.0727 63.0933 24.0041C63.0933 21.9355 63.9878 19.9515 65.5801 18.4882C67.1737 17.0261 69.3343 16.2047 71.5872 16.2047C73.84 16.2047 76.0006 17.0261 77.5942 18.4882V18.4882ZM41.8658 11C43.724 11.0004 45.5639 11.337 47.2804 11.9904C48.9969 12.6439 50.5565 13.6014 51.87 14.8083C57.3998 19.8832 57.3998 28.1168 51.87 33.1917C49.2136 35.629 45.612 36.998 41.8568 36.998C38.1016 36.998 34.5001 35.629 31.8437 33.1917C26.3153 28.1154 26.3153 19.8832 31.8437 14.8069C33.1573 13.6002 34.7169 12.643 36.4335 11.9898C38.15 11.3366 39.9898 11.0003 41.8479 11H41.8658ZM47.8639 18.4855C49.4567 19.9488 50.3514 21.9331 50.3514 24.002C50.3514 26.071 49.4567 28.0553 47.8639 29.5186C46.2703 30.9808 44.1096 31.8021 41.8568 31.8021C39.604 31.8021 37.4434 30.9808 35.8498 29.5186C34.2575 28.0553 33.363 26.0713 33.363 24.0027C33.363 21.9341 34.2575 19.9502 35.8498 18.4869C37.4434 17.0247 39.604 16.2034 41.8568 16.2034C44.1096 16.2034 46.2703 17.0247 47.8639 18.4869V18.4855Z" fill="#030712"/>
</svg>
