<svg width="360" height="384" viewBox="0 0 360 384" fill="none" xmlns="http://www.w3.org/2000/svg">
<path d="M338.441 198.365C338.441 200.641 337.342 202.913 335.141 205.165C332.938 207.419 329.663 209.617 325.402 211.726C316.881 215.943 304.519 219.754 289.202 222.961C258.577 229.372 216.245 233.341 169.471 233.341C122.696 233.341 80.3647 229.372 49.7393 222.961C34.4225 219.754 22.0604 215.943 13.5396 211.726C9.27832 209.617 6.00358 207.419 3.80059 205.165C1.59931 202.913 0.5 200.641 0.5 198.365C0.5 196.089 1.59931 193.817 3.80059 191.565C6.00358 189.311 9.27832 187.113 13.5396 185.004C22.0604 180.787 34.4225 176.975 49.7393 173.769C80.3647 167.358 122.696 163.389 169.471 163.389C216.245 163.389 258.577 167.358 289.202 173.769C304.519 176.975 316.881 180.787 325.402 185.004C329.663 187.113 332.938 189.311 335.141 191.565C337.342 193.817 338.441 196.089 338.441 198.365Z" stroke="#030712"/>
<path d="M338.441 223.348C338.441 225.624 337.342 227.896 335.141 230.148C332.938 232.402 329.663 234.6 325.402 236.709C316.881 240.926 304.519 244.737 289.202 247.944C258.577 254.355 216.245 258.324 169.471 258.324C122.696 258.324 80.3647 254.355 49.7393 247.944C34.4225 244.737 22.0604 240.926 13.5396 236.709C9.27832 234.6 6.00358 232.402 3.80059 230.148C1.59931 227.896 0.5 225.624 0.5 223.348C0.5 221.072 1.59931 218.8 3.80059 216.548C6.00358 214.294 9.27832 212.096 13.5396 209.987C22.0604 205.77 34.4225 201.958 49.7393 198.752C80.3647 192.341 122.696 188.372 169.471 188.372C216.245 188.372 258.577 192.341 289.202 198.752C304.519 201.958 316.881 205.77 325.402 209.987C329.663 212.096 332.938 214.294 335.141 216.548C337.342 218.8 338.441 221.072 338.441 223.348Z" stroke="#030712"/>
<path d="M338.441 248.331C338.441 250.606 337.342 252.879 335.141 255.131C332.938 257.385 329.663 259.582 325.402 261.691C316.881 265.909 304.519 269.72 289.202 272.927C258.577 279.338 216.245 283.307 169.471 283.307C122.696 283.307 80.3647 279.338 49.7393 272.927C34.4225 269.72 22.0604 265.909 13.5396 261.691C9.27832 259.582 6.00358 257.385 3.80059 255.131C1.59931 252.879 0.5 250.606 0.5 248.331C0.5 246.055 1.59931 243.783 3.80059 241.531C6.00358 239.277 9.27832 237.079 13.5396 234.97C22.0604 230.753 34.4225 226.941 49.7393 223.735C80.3647 217.324 122.696 213.355 169.471 213.355C216.245 213.355 258.577 217.324 289.202 223.735C304.519 226.941 316.881 230.753 325.402 234.97C329.663 237.079 332.938 239.277 335.141 241.531C337.342 243.783 338.441 246.055 338.441 248.331Z" stroke="#030712"/>
<path d="M253.047 66.5843L253.215 67.487L253.882 66.8561L301.151 22.1586L273.101 80.7672L272.703 81.5987L273.617 81.4788L338.215 73.006L280.959 103.989L280.146 104.429L280.959 104.869L338.215 135.852L273.617 127.379L272.703 127.259L273.101 128.09L301.151 186.699L253.882 142.001L253.215 141.371L253.047 142.273L241.17 206.124L229.293 142.273L229.125 141.371L228.458 142.001L181.189 186.699L209.239 128.09L209.637 127.259L208.723 127.379L144.125 135.852L201.381 104.869L202.194 104.429L201.381 103.989L144.125 73.006L208.723 81.4788L209.637 81.5987L209.239 80.7672L181.189 22.1586L228.458 66.8561L229.125 67.487L229.293 66.5843L241.17 2.73402L253.047 66.5843Z" stroke="#030712"/>
<path d="M277.771 176.879L295.61 221.909L342.06 207.732L317.855 249.706L357.938 277.058L309.916 284.369L313.449 332.653L277.771 299.796L242.094 332.653L245.627 284.369L197.605 277.058L237.688 249.706L213.483 207.732L259.933 221.909L277.771 176.879Z" fill="#F9FAFB"/>
<path d="M112.821 298.13L135.888 257.124L159.141 298.13L201.386 320.562L159.141 342.994L135.888 384L112.821 342.994L70.3906 320.562L112.821 298.13Z" fill="#030712"/>
<path d="M215.098 186.373C215.098 220.589 187.264 248.33 152.924 248.33C118.585 248.33 90.75 220.589 90.75 186.373C90.75 152.156 118.585 124.416 152.924 124.416C187.264 124.416 215.098 152.156 215.098 186.373Z" fill="#030712" stroke="#030712"/>
<ellipse cx="132.368" cy="172.882" rx="10.0279" ry="19.9864" fill="#F9FAFB"/>
<ellipse cx="173.481" cy="172.882" rx="10.0279" ry="19.9864" fill="#F9FAFB"/>
</svg>
